<svg xmlns="http://www.w3.org/2000/svg" viewBox="0 0 64 64" width="256" height="256" fill="none" stroke="currentColor" stroke-linecap="round" stroke-linejoin="round">
  <path stroke-width="2" d="M13 42c1-14 11-23 21-27 10 3 19 13 19 27 0 10-7 16-19 18-12-2-21-8-21-18z"/>
  <path stroke-width="1.7" d="M17 33h30"/>
  <path stroke-width="1.6" d="M19 25c5 9 12 13 15 13 4 0 10-4 15-13"/>
  <path stroke-width="1.4" d="M25 25h14"/>
  <path stroke-width="1.6" d="M21 46h22"/>
  <path stroke-width="1.6" d="M34 12c3 4 5 8 5 11"/>
  <path stroke-width="1.4" d="M26 15l8 8 8-8"/>
  <path stroke-width="1.3" d="M24 38h16"/>
  <circle cx="21" cy="33" r="1.1" fill="currentColor" stroke="none"/>
  <circle cx="43" cy="33" r="1.1" fill="currentColor" stroke="none"/>
</svg>
