<svg xmlns="http://www.w3.org/2000/svg" viewBox="0 0 64 64" width="256" height="256" fill="none" stroke="currentColor" stroke-linecap="round" stroke-linejoin="round">
  <path stroke-width="2" d="M18 40c0-13 6-22 14-22s14 9 14 22"/>
  <path stroke-width="1.8" d="M16 40h32"/>
  <path stroke-width="1.6" d="M32 40v9"/>
  <path stroke-width="1.5" d="M22 40v7c0 2 2 4 4 4M42 40v7c0 2-2 4-4 4"/>
  <path stroke-width="1.7" d="M31 18c0-5 2 -7 4 -9"/>
  <path stroke-width="1.5" d="M34 18c0-3 1 -5 5 -7"/>
  <path stroke-width="1.5" d="M26 37l6-3 6 3"/>
  <circle cx="24" cy="30" r="1.2" fill="currentColor" stroke="none"/>
  <circle cx="40" cy="30" r="1.2" fill="currentColor" stroke="none"/>
</svg>
